<mxfile host="app.diagrams.net" modified="2024-04-25T02:36:07.260Z" agent="Mozilla/5.0 (Windows NT 10.0; Win64; x64) AppleWebKit/537.36 (KHTML, like Gecko) Chrome/116.0.0.0 Safari/537.36" etag="AFWr1XdLRf3-b1bDuZEr" version="24.3.0" type="device">
  <diagram name="Page-1" id="cDKcOa3SENPQKOpzo1GX">
    <mxGraphModel dx="1444" dy="927" grid="1" gridSize="10" guides="1" tooltips="1" connect="1" arrows="1" fold="1" page="1" pageScale="1" pageWidth="827" pageHeight="1169" math="0" shadow="0">
      <root>
        <mxCell id="0" />
        <mxCell id="1" parent="0" />
        <mxCell id="ZxDzX1OIMMhB_YbbfT3x-1" value="Actor" style="shape=umlActor;verticalLabelPosition=bottom;verticalAlign=top;html=1;outlineConnect=0;" vertex="1" parent="1">
          <mxGeometry x="140" y="110" width="30" height="60" as="geometry" />
        </mxCell>
        <mxCell id="ZxDzX1OIMMhB_YbbfT3x-2" value="&lt;font size=&quot;1&quot; style=&quot;&quot;&gt;&lt;b style=&quot;font-size: 24px;&quot;&gt;Sequence Diagram for view patient information&lt;/b&gt;&lt;/font&gt;" style="text;html=1;align=center;verticalAlign=middle;whiteSpace=wrap;rounded=0;" vertex="1" parent="1">
          <mxGeometry x="250" y="30" width="570" height="30" as="geometry" />
        </mxCell>
        <mxCell id="ZxDzX1OIMMhB_YbbfT3x-3" value="&lt;font style=&quot;font-size: 20px;&quot;&gt;Medical Receptionist&lt;/font&gt;" style="text;html=1;align=center;verticalAlign=middle;whiteSpace=wrap;rounded=0;" vertex="1" parent="1">
          <mxGeometry x="125" y="60" width="60" height="30" as="geometry" />
        </mxCell>
        <mxCell id="ZxDzX1OIMMhB_YbbfT3x-7" value="" style="html=1;points=[[0,0,0,0,5],[0,1,0,0,-5],[1,0,0,0,5],[1,1,0,0,-5]];perimeter=orthogonalPerimeter;outlineConnect=0;targetShapes=umlLifeline;portConstraint=eastwest;newEdgeStyle={&quot;curved&quot;:0,&quot;rounded&quot;:0};" vertex="1" parent="1">
          <mxGeometry x="150" y="200" width="10" height="600" as="geometry" />
        </mxCell>
        <mxCell id="ZxDzX1OIMMhB_YbbfT3x-8" value="&lt;font style=&quot;font-size: 20px;&quot;&gt;P: PatientInfo&lt;/font&gt;" style="html=1;whiteSpace=wrap;" vertex="1" parent="1">
          <mxGeometry x="280" y="100" width="150" height="50" as="geometry" />
        </mxCell>
        <mxCell id="ZxDzX1OIMMhB_YbbfT3x-9" value="&lt;font style=&quot;font-size: 20px;&quot;&gt;D: Mentcare - DB&lt;/font&gt;" style="html=1;whiteSpace=wrap;" vertex="1" parent="1">
          <mxGeometry x="490" y="100" width="150" height="50" as="geometry" />
        </mxCell>
        <mxCell id="ZxDzX1OIMMhB_YbbfT3x-10" value="&lt;span style=&quot;font-size: 20px;&quot;&gt;AS: Authorization&lt;/span&gt;" style="html=1;whiteSpace=wrap;" vertex="1" parent="1">
          <mxGeometry x="710" y="100" width="180" height="50" as="geometry" />
        </mxCell>
        <mxCell id="ZxDzX1OIMMhB_YbbfT3x-11" value="" style="html=1;points=[[0,0,0,0,5],[0,1,0,0,-5],[1,0,0,0,5],[1,1,0,0,-5]];perimeter=orthogonalPerimeter;outlineConnect=0;targetShapes=umlLifeline;portConstraint=eastwest;newEdgeStyle={&quot;curved&quot;:0,&quot;rounded&quot;:0};" vertex="1" parent="1">
          <mxGeometry x="350" y="220" width="10" height="420" as="geometry" />
        </mxCell>
        <mxCell id="ZxDzX1OIMMhB_YbbfT3x-12" value="" style="html=1;points=[[0,0,0,0,5],[0,1,0,0,-5],[1,0,0,0,5],[1,1,0,0,-5]];perimeter=orthogonalPerimeter;outlineConnect=0;targetShapes=umlLifeline;portConstraint=eastwest;newEdgeStyle={&quot;curved&quot;:0,&quot;rounded&quot;:0};" vertex="1" parent="1">
          <mxGeometry x="550" y="260" width="10" height="360" as="geometry" />
        </mxCell>
        <mxCell id="ZxDzX1OIMMhB_YbbfT3x-13" value="" style="html=1;points=[[0,0,0,0,5],[0,1,0,0,-5],[1,0,0,0,5],[1,1,0,0,-5]];perimeter=orthogonalPerimeter;outlineConnect=0;targetShapes=umlLifeline;portConstraint=eastwest;newEdgeStyle={&quot;curved&quot;:0,&quot;rounded&quot;:0};" vertex="1" parent="1">
          <mxGeometry x="795" y="280" width="10" height="130" as="geometry" />
        </mxCell>
        <mxCell id="ZxDzX1OIMMhB_YbbfT3x-14" value="" style="endArrow=classic;html=1;rounded=0;" edge="1" parent="1" target="ZxDzX1OIMMhB_YbbfT3x-11">
          <mxGeometry width="50" height="50" relative="1" as="geometry">
            <mxPoint x="160" y="220" as="sourcePoint" />
            <mxPoint x="210" y="170" as="targetPoint" />
          </mxGeometry>
        </mxCell>
        <mxCell id="ZxDzX1OIMMhB_YbbfT3x-15" value="&lt;font style=&quot;font-size: 20px;&quot;&gt;ViewInfo(PID)&lt;/font&gt;" style="text;html=1;align=center;verticalAlign=middle;whiteSpace=wrap;rounded=0;" vertex="1" parent="1">
          <mxGeometry x="220" y="191" width="60" height="30" as="geometry" />
        </mxCell>
        <mxCell id="ZxDzX1OIMMhB_YbbfT3x-18" value="" style="endArrow=classic;html=1;rounded=0;" edge="1" parent="1" target="ZxDzX1OIMMhB_YbbfT3x-12">
          <mxGeometry width="50" height="50" relative="1" as="geometry">
            <mxPoint x="360" y="260" as="sourcePoint" />
            <mxPoint x="410" y="210" as="targetPoint" />
          </mxGeometry>
        </mxCell>
        <mxCell id="ZxDzX1OIMMhB_YbbfT3x-19" value="&lt;span style=&quot;font-size: 20px;&quot;&gt;report(info, PID, UID)&lt;/span&gt;" style="text;html=1;align=center;verticalAlign=middle;whiteSpace=wrap;rounded=0;" vertex="1" parent="1">
          <mxGeometry x="390" y="221" width="150" height="30" as="geometry" />
        </mxCell>
        <mxCell id="ZxDzX1OIMMhB_YbbfT3x-21" value="" style="endArrow=classic;html=1;rounded=0;" edge="1" parent="1" target="ZxDzX1OIMMhB_YbbfT3x-13">
          <mxGeometry width="50" height="50" relative="1" as="geometry">
            <mxPoint x="570" y="300" as="sourcePoint" />
            <mxPoint x="770" y="300" as="targetPoint" />
          </mxGeometry>
        </mxCell>
        <mxCell id="ZxDzX1OIMMhB_YbbfT3x-22" value="" style="endArrow=none;html=1;rounded=0;entryX=0.5;entryY=1;entryDx=0;entryDy=0;dashed=1;strokeWidth=3;" edge="1" parent="1" source="ZxDzX1OIMMhB_YbbfT3x-11" target="ZxDzX1OIMMhB_YbbfT3x-8">
          <mxGeometry width="50" height="50" relative="1" as="geometry">
            <mxPoint x="355" y="210" as="sourcePoint" />
            <mxPoint x="450" y="150" as="targetPoint" />
          </mxGeometry>
        </mxCell>
        <mxCell id="ZxDzX1OIMMhB_YbbfT3x-23" value="" style="endArrow=none;html=1;rounded=0;entryX=0.464;entryY=1.07;entryDx=0;entryDy=0;dashed=1;strokeWidth=3;entryPerimeter=0;" edge="1" parent="1">
          <mxGeometry width="50" height="50" relative="1" as="geometry">
            <mxPoint x="555.5999999999999" y="248" as="sourcePoint" />
            <mxPoint x="555.5999999999999" y="151.50000000000006" as="targetPoint" />
          </mxGeometry>
        </mxCell>
        <mxCell id="ZxDzX1OIMMhB_YbbfT3x-24" value="" style="endArrow=none;html=1;rounded=0;entryX=0.467;entryY=1.06;entryDx=0;entryDy=0;dashed=1;strokeWidth=3;entryPerimeter=0;exitX=0;exitY=0;exitDx=0;exitDy=5;exitPerimeter=0;" edge="1" parent="1">
          <mxGeometry width="50" height="50" relative="1" as="geometry">
            <mxPoint x="800" y="282" as="sourcePoint" />
            <mxPoint x="799.06" y="150" as="targetPoint" />
          </mxGeometry>
        </mxCell>
        <mxCell id="ZxDzX1OIMMhB_YbbfT3x-25" value="&lt;span style=&quot;font-size: 20px;&quot;&gt;authorize(info,UID)&lt;/span&gt;" style="text;html=1;align=center;verticalAlign=middle;whiteSpace=wrap;rounded=0;" vertex="1" parent="1">
          <mxGeometry x="590" y="260" width="150" height="30" as="geometry" />
        </mxCell>
        <mxCell id="ZxDzX1OIMMhB_YbbfT3x-26" value="" style="endArrow=classic;html=1;rounded=0;dashed=1;dashPattern=8 8;" edge="1" parent="1" source="ZxDzX1OIMMhB_YbbfT3x-13">
          <mxGeometry width="50" height="50" relative="1" as="geometry">
            <mxPoint x="620" y="440" as="sourcePoint" />
            <mxPoint x="570" y="390" as="targetPoint" />
          </mxGeometry>
        </mxCell>
        <mxCell id="ZxDzX1OIMMhB_YbbfT3x-27" value="&lt;font style=&quot;font-size: 20px;&quot;&gt;authorizatioin&lt;/font&gt;" style="text;html=1;align=center;verticalAlign=middle;whiteSpace=wrap;rounded=0;" vertex="1" parent="1">
          <mxGeometry x="650" y="350" width="60" height="30" as="geometry" />
        </mxCell>
        <mxCell id="ZxDzX1OIMMhB_YbbfT3x-28" value="" style="endArrow=none;html=1;rounded=0;entryX=0.5;entryY=1;entryDx=0;entryDy=0;dashed=1;strokeWidth=3;" edge="1" parent="1">
          <mxGeometry width="50" height="50" relative="1" as="geometry">
            <mxPoint x="354" y="880" as="sourcePoint" />
            <mxPoint x="354.29" y="635" as="targetPoint" />
          </mxGeometry>
        </mxCell>
        <mxCell id="ZxDzX1OIMMhB_YbbfT3x-30" value="" style="endArrow=none;html=1;rounded=0;dashed=1;strokeWidth=3;" edge="1" parent="1" target="ZxDzX1OIMMhB_YbbfT3x-12">
          <mxGeometry width="50" height="50" relative="1" as="geometry">
            <mxPoint x="555" y="880" as="sourcePoint" />
            <mxPoint x="364.29" y="645" as="targetPoint" />
          </mxGeometry>
        </mxCell>
        <mxCell id="ZxDzX1OIMMhB_YbbfT3x-31" value="" style="endArrow=none;html=1;rounded=0;dashed=1;strokeWidth=3;entryX=0;entryY=1;entryDx=0;entryDy=-5;entryPerimeter=0;" edge="1" parent="1">
          <mxGeometry width="50" height="50" relative="1" as="geometry">
            <mxPoint x="800" y="880" as="sourcePoint" />
            <mxPoint x="799.9999999999998" y="402" as="targetPoint" />
          </mxGeometry>
        </mxCell>
        <mxCell id="ZxDzX1OIMMhB_YbbfT3x-32" value="" style="endArrow=none;html=1;rounded=0;entryX=0.5;entryY=1;entryDx=0;entryDy=0;dashed=1;strokeWidth=3;" edge="1" parent="1">
          <mxGeometry width="50" height="50" relative="1" as="geometry">
            <mxPoint x="155" y="880" as="sourcePoint" />
            <mxPoint x="154.58" y="800" as="targetPoint" />
          </mxGeometry>
        </mxCell>
        <mxCell id="ZxDzX1OIMMhB_YbbfT3x-33" value="&lt;font style=&quot;font-size: 20px;&quot;&gt;alt&lt;/font&gt;" style="shape=umlFrame;whiteSpace=wrap;html=1;pointerEvents=0;" vertex="1" parent="1">
          <mxGeometry x="120" y="470" width="840" height="380" as="geometry" />
        </mxCell>
        <mxCell id="ZxDzX1OIMMhB_YbbfT3x-34" value="" style="endArrow=none;html=1;rounded=0;" edge="1" parent="1" target="ZxDzX1OIMMhB_YbbfT3x-33">
          <mxGeometry width="50" height="50" relative="1" as="geometry">
            <mxPoint x="120" y="670" as="sourcePoint" />
            <mxPoint x="170" y="620" as="targetPoint" />
          </mxGeometry>
        </mxCell>
        <mxCell id="ZxDzX1OIMMhB_YbbfT3x-36" value="" style="endArrow=none;html=1;rounded=0;exitX=-0.003;exitY=0.414;exitDx=0;exitDy=0;exitPerimeter=0;entryX=1;entryY=0.421;entryDx=0;entryDy=0;entryPerimeter=0;" edge="1" parent="1" source="ZxDzX1OIMMhB_YbbfT3x-33" target="ZxDzX1OIMMhB_YbbfT3x-33">
          <mxGeometry width="50" height="50" relative="1" as="geometry">
            <mxPoint x="1170" y="90" as="sourcePoint" />
            <mxPoint x="960" y="640" as="targetPoint" />
          </mxGeometry>
        </mxCell>
        <mxCell id="ZxDzX1OIMMhB_YbbfT3x-37" value="" style="endArrow=classic;html=1;rounded=0;dashed=1;dashPattern=8 8;" edge="1" parent="1">
          <mxGeometry width="50" height="50" relative="1" as="geometry">
            <mxPoint x="549" y="527" as="sourcePoint" />
            <mxPoint x="359.0000000000001" y="527.0000000000001" as="targetPoint" />
          </mxGeometry>
        </mxCell>
        <mxCell id="ZxDzX1OIMMhB_YbbfT3x-38" value="&lt;font style=&quot;font-size: 20px;&quot;&gt;Patient info&lt;/font&gt;" style="text;html=1;align=center;verticalAlign=middle;whiteSpace=wrap;rounded=0;" vertex="1" parent="1">
          <mxGeometry x="400" y="490" width="110" height="30" as="geometry" />
        </mxCell>
        <mxCell id="ZxDzX1OIMMhB_YbbfT3x-39" value="" style="endArrow=classic;html=1;rounded=0;dashed=1;dashPattern=8 8;" edge="1" parent="1">
          <mxGeometry width="50" height="50" relative="1" as="geometry">
            <mxPoint x="550" y="730" as="sourcePoint" />
            <mxPoint x="360.0000000000001" y="730.0000000000001" as="targetPoint" />
          </mxGeometry>
        </mxCell>
        <mxCell id="ZxDzX1OIMMhB_YbbfT3x-40" value="&lt;font style=&quot;font-size: 20px;&quot;&gt;Error (no access)&lt;/font&gt;" style="text;html=1;align=center;verticalAlign=middle;whiteSpace=wrap;rounded=0;" vertex="1" parent="1">
          <mxGeometry x="400" y="680" width="110" height="30" as="geometry" />
        </mxCell>
        <mxCell id="ZxDzX1OIMMhB_YbbfT3x-41" value="&lt;font style=&quot;font-size: 20px;&quot;&gt;[authorization ok]&lt;/font&gt;" style="text;html=1;align=center;verticalAlign=middle;whiteSpace=wrap;rounded=0;" vertex="1" parent="1">
          <mxGeometry x="125" y="510" width="175" height="30" as="geometry" />
        </mxCell>
        <mxCell id="ZxDzX1OIMMhB_YbbfT3x-42" value="&lt;font style=&quot;font-size: 20px;&quot;&gt;[authorization fail]&lt;/font&gt;" style="text;html=1;align=center;verticalAlign=middle;whiteSpace=wrap;rounded=0;" vertex="1" parent="1">
          <mxGeometry x="120" y="670" width="175" height="30" as="geometry" />
        </mxCell>
      </root>
    </mxGraphModel>
  </diagram>
</mxfile>
